# xmcd
#
# Track frame offsets:
#	150
#	13702
#	27349
#	41644
#	51263
#	65390
#	75482
#	88714
#	105408
#	117196
#
# Disc length: 1728 seconds
#
# Revision: 1
# Processed by: cddbd v1.5.1PL0 Copyright (c) Steve Scherf et al.
# Submitted via: audiograbber 1.81.01
#
DISCID=7506be0a
DTITLE=The Barker Band - Lonesome Waltz
DYEAR=2005
DGENRE=Bluegrass
TTITLE0=Heart like mine
TTITLE1=Rollon Joline
TTITLE2=Boy got killed in town
TTITLE3=She left love
TTITLE4=Last kiss goodbye
TTITLE5=Years pass by
TTITLE6=Reason
TTITLE7=Never the same
TTITLE8=Lonesome Waltz
TTITLE9=Sweetest Love
EXTD=www.barkerband.com
EXTT0=
EXTT1=
EXTT2=
EXTT3=
EXTT4=
EXTT5=
EXTT6=
EXTT7=
EXTT8=
EXTT9=
PLAYORDER=
